<svg width="243.3759918212891" height="243.3759918212891"><defs id="SvgjsDefs1002"></defs><g id="SvgjsG1008" transform="translate(0, 0) scale(4.867519836425782)" rel="inversefill" name="filled_container" xmlns:name="filledContainer_inversefill" fill="#ffffff"><rect width="50" height="50"></rect></g><g id="main_text" rel="mainfill" name="main_text" xmlns:name="mainText_mainfill" fill="#421b95" transform="translate(48.271999359130874, 89.67199516296388)"><path d="M30.816 17.28 l3.456 30.72 l-3.552 0 l-2.976 -26.304 l-7.584 26.304 l-4.32 0 l-7.584 -26.304 l-2.976 26.304 l-3.552 0 l3.456 -30.72 l5.472 0 l7.344 25.488 l7.344 -25.488 l5.472 0 z M56.832 48 l-3.552 0 l0 -2.448 c-1.728 1.632 -3.888 2.64 -6 2.832 c-0.24 0.048 -0.576 0.048 -0.96 0.048 c-1.536 0 -3.888 -0.288 -5.76 -2.016 c-1.776 -1.584 -2.64 -3.936 -2.64 -7.008 l0 -15.12 l3.504 0 l0 15.12 c0 2.016 0.528 3.504 1.488 4.368 c1.392 1.248 3.456 1.152 4.032 1.104 c3.216 -0.336 6.336 -3.696 6.336 -6.816 l0 -13.776 l3.552 0 l0 23.712 z M77.42399999999999 25.872 c1.776 1.584 2.64 3.936 2.64 6.96 l0 7.056 c0 3.264 -1.632 6.288 -4.176 7.68 c-0.768 0.432 -1.92 0.864 -3.408 0.864 c-1.392 0 -3.072 -0.384 -4.944 -1.536 c-1.536 -0.96 -2.832 -1.296 -3.552 -0.912 c-0.624 0.336 -0.96 1.296 -0.96 2.016 l-3.504 0 c0 -1.296 0.432 -3.024 1.632 -4.272 l0 -10.656 l0 -17.424 l3.552 0 l0 11.088 c1.728 -1.632 3.888 -2.688 6 -2.88 c1.2 -0.096 4.32 -0.144 6.72 2.016 z M76.56 39.888 l0 -7.056 c0 -2.016 -0.528 -3.456 -1.488 -4.368 c-1.392 -1.248 -3.456 -1.152 -4.032 -1.104 c-3.216 0.336 -6.336 3.744 -6.336 6.864 l0 8.064 c1.248 0 2.784 0.432 4.704 1.584 c1.248 0.816 3.12 1.536 4.752 0.624 c1.44 -0.816 2.4 -2.64 2.4 -4.608 z M102.816 43.728 c1.2 1.248 1.632 2.976 1.632 4.272 l-3.504 0 c0 -0.72 -0.336 -1.68 -0.96 -2.016 c-0.72 -0.384 -2.016 -0.048 -3.552 0.912 c-1.92 1.2 -3.648 1.536 -4.944 1.536 c-0.624 0 -1.152 -0.048 -1.584 -0.144 c-1.872 -0.432 -3.456 -1.632 -4.56 -3.36 c-1.2 -1.824 -1.68 -4.128 -1.392 -6.336 c0.384 -2.448 1.68 -4.56 3.744 -5.904 c1.536 -1.008 3.36 -1.584 5.232 -1.632 c1.728 0 3.456 0.432 4.992 1.248 c0.48 0.24 0.912 0.576 1.344 0.864 l0 -0.384 c0 -2.352 -0.576 -3.936 -1.68 -4.752 c-1.008 -0.72 -2.544 -0.912 -4.656 -0.624 c-1.92 0.24 -3.888 0.912 -5.184 1.344 c-0.384 0.144 -0.672 0.24 -0.96 0.336 l-1.008 -3.408 c0.192 -0.048 0.48 -0.144 0.816 -0.288 c2.976 -0.96 9.12 -3.072 13.056 -0.24 c2.112 1.488 3.168 4.08 3.168 7.632 l0 10.944 z M94.56 43.872 c1.92 -1.152 3.456 -1.584 4.704 -1.584 l0 -2.16 c0 -1.92 -1.152 -3.696 -3.024 -4.704 c-2.16 -1.152 -4.608 -1.056 -6.624 0.24 c-2.64 1.68 -2.736 5.136 -1.296 7.392 c0.624 1.008 2.544 3.12 6.24 0.816 z M117.16799999999999 23.904 l0.336 3.552 c-3.168 0.288 -6.336 3.696 -6.336 6.816 l0 13.776 l-3.552 0 l0 -23.76 l3.552 0 l0 2.496 c1.728 -1.632 3.888 -2.64 6 -2.88 z M120.816 48 l0 -23.76 l3.552 0 l0 23.76 l-3.552 0 z M122.592 20.352 c-1.296 0 -2.352 -1.056 -2.352 -2.352 c0 -1.344 1.056 -2.4 2.352 -2.4 c1.344 0 2.4 1.056 2.4 2.4 c0 1.296 -1.056 2.352 -2.4 2.352 z M138.096 48.384 c-3.456 0 -7.872 -1.008 -9.36 -1.584 l1.296 -3.264 c1.344 0.528 6.912 1.728 9.552 1.2 c0.912 -0.144 1.68 -1.008 1.824 -2.064 c0.192 -1.344 -0.768 -2.688 -2.592 -3.552 c-1.104 -0.576 -3.072 -1.488 -4.704 -2.208 c-0.96 -0.432 -1.776 -0.768 -2.304 -1.008 c-1.296 -0.624 -2.352 -1.536 -3.072 -2.64 c-0.672 -1.104 -1.008 -2.304 -0.96 -3.552 c0 -1.152 0.384 -2.256 1.008 -3.216 c0.72 -1.008 1.68 -1.776 2.832 -2.208 c1.536 -0.624 3.792 -0.672 6.624 -0.096 c2.16 0.432 4.128 1.056 4.944 1.392 l-1.248 3.312 c-0.672 -0.288 -2.448 -0.864 -4.368 -1.248 c-2.976 -0.576 -4.224 -0.24 -4.656 -0.096 c-0.96 0.384 -1.584 1.248 -1.632 2.256 c0 1.2 0.72 2.256 2.064 2.88 c0.48 0.24 1.248 0.576 2.208 1.008 c1.632 0.72 3.696 1.632 4.848 2.256 c1.68 0.816 2.88 1.872 3.696 3.216 c0.72 1.248 1.008 2.64 0.816 4.032 c-0.192 1.2 -0.72 2.352 -1.536 3.264 c-0.864 0.912 -1.92 1.536 -3.12 1.776 c-0.624 0.096 -1.392 0.144 -2.16 0.144 z"></path></g></svg>